<svg height="40" viewBox="0 0 60 60" width="40" xmlns="http://www.w3.org/2000/svg"><path id="Shape" d="m1.45 26.83c3.02039773 1.8086759 6.47954822 2.753024 10 2.73 1.1735598.0008582 2.3448607-.1028856 3.5-.31l-.95 26.75c-.0143292.3908871.20056.7542452.55.93 3.84 1.88 7.93 3.07 16.45 3.07s12.61-1.19 16.45-3.11c.3362797-.1694502.5488587-.5134418.55-.89l-1-26.71c1.1551393.2071144 2.3264402.3108582 3.5.31 3.5204518.023024 6.9796023-.9213241 10-2.73.4206944-.2191407.6295498-.7036851.5-1.16-4-13.08-9-18.2-9.25-18.42-2.8008206-1.44826229-5.7300591-2.63334849-8.75-3.54l-1.6-2.41c-.5503008-.82849555-1.475443-1.33039456-2.47-1.34h-15.86c-1.0052018-.00037531-1.9437884.50270708-2.5 1.34l-1.57 2.41c-2.8979289.90372452-5.7227745 2.02697671-8.45 3.36-.0963069.04471737-.1842445.10559729-.26.18-.22.22-5.22 5.34-9.29 18.42-.11762547.4319745.0661984.8894917.45 1.12zm1.74-1.3c.22-.67.43-1.31.65-1.93 3.24027318 1.5427551 6.8359687 2.1852137 10.41 1.86l.5 1.79c-3.9376021.7153951-8.00123917.1107709-11.56-1.72zm7.23-15.23c.81 3.91 2.24 9.34 3.29 13.21-3.1649224.2157387-6.33090061-.4050413-9.18-1.8 1.45112375-4.04663 3.43166838-7.8833047 5.89-11.41zm20.58 47.7c-7.74 0-11.49-1-15-2.61l.07-1.78c3.46 1.49 7.49 2.39 14.93 2.39s11.47-.9 14.91-2.39l.09 1.78c-3.51 1.66-7.26 2.61-15 2.61zm20.58-47.7c2.4566247 3.5277243 4.4370488 7.3641655 5.89 11.41-2.8490994 1.3949587-6.0150776 2.0157387-9.18 1.8 1.05-3.87 2.48-9.3 3.29-13.21zm-4.33 17 .5-1.79c3.578746.3136752 7.1757124-.3462869 10.41-1.91.22.62.43 1.26.65 1.93-3.5571259 1.8358443-7.6224849 2.4407247-11.56 1.72zm-25-24.8c.1701734-.2956063.4792819-.4840871.82-.5h15.86c.3345191.00173065.6460165.17061479.83.45l3.13 4.69c-1.2435563 3.3895497-3.8250886 6.1193213-7.14 7.55-.4736009-1.4155117-1.3795001-2.6466952-2.59-3.52 2.48-1.17 5.14-3.23 5.84-5.93.1325483-.55228475-.2077153-1.10745166-.76-1.24s-1.1074517.20771525-1.24.76c-.0672376.24657794-.1541842.48735309-.26.72-3.8183722-.61946438-7.7116278-.61946438-11.53 0-.0912305-.23329162-.161508-.47424297-.21-.72-.1325484-.55228473-.6877153-.89254829-1.24-.75999996-.5522847.13254834-.8925483.68771522-.76 1.23999996.67 2.7 3.31 4.7 5.81 5.93-1.2104999.8733048-2.1163991 2.1044883-2.59 3.52-3.3149114-1.4306787-5.8964437-4.1604503-7.14-7.55zm8.75 7.44c-1.6079978-.61169055-3.0919387-1.5095087-4.38-2.65 2.9210284-.37997093 5.8789716-.37997093 8.8 0-1.3056668 1.13688789-2.8020219 2.03402382-4.42 2.65zm-13.84-3.47c-.1508887.23786359-.1944593.5283342-.12.8.09.31 2.24 7.56 9.69 9.69.300822.0843562.6237825.02327.8730149-.1651261.2492323-.1883962.3960918-.4824494.3969851-.7948739.1903868-1.2992155.9155938-2.4595467 2-3.2v9.2c0 .5522847.4477153 1 1 1s1-.4477153 1-1v-9.2c1.0917585.7333661 1.8192056 1.8972814 2 3.2-.0119335.3194066.1295374.6252735.3806619.8230094.2511246.1977358.5816421.2635134.8893381.1769906 7.45-2.13 9.6-9.38 9.69-9.69.0744593-.2716658.0308887-.56213641-.12-.8 2.17.79 4.08 1.65 5 2.1-1.12 6.21-4.84 19.39-4.84 19.15-.06.22 0 0 .81 23.69-3.42 1.62-7.14 2.55-14.81 2.55s-11.39-.93-14.84-2.55c.84-23.9.84-23.45.84-23.69s-3.7-12.84-4.88-19.19c.96-.45 2.88-1.31 5.04-2.1z" transform="translate(-1)"/></svg>